Coordinates
version=1
nRows=4
nColumns=63
inDegrees=yes

Units are S.I. units (second, meters, Newtons, ...)
If the header above contains a line with 'inDegrees', this indicates whether rotational values are in degrees (yes) or radians (no).

endheader
time	pelvis_tilt	pelvis_list	pelvis_rotation	pelvis_tx	pelvis_ty	pelvis_tz	hip_flexion_r	hip_adduction_r	hip_rotation_r	knee_angle_r	knee_angle_r_beta	ankle_angle_r	subtalar_angle_r	mtp_angle_r	hip_flexion_l	hip_adduction_l	hip_rotation_l	knee_angle_l	knee_angle_l_beta	ankle_angle_l	subtalar_angle_l	mtp_angle_l	L5_S1_Flex_Ext	L5_S1_Lat_Bending	L5_S1_axial_rotation	L4_L5_Flex_Ext	L4_L5_Lat_Bending	L4_L5_axial_rotation	L3_L4_Flex_Ext	L3_L4_Lat_Bending	L3_L4_axial_rotation	L2_L3_Flex_Ext	L2_L3_Lat_Bending	L2_L3_axial_rotation	L1_L2_Flex_Ext	L1_L2_Lat_Bending	L1_L2_axial_rotation	L1_T12_Flex_Ext	L1_T12_Lat_Bending	L1_T12_axial_rotation	Abs_r3	Abs_r2	Abs_r1	Abs_t1	Abs_t2	neck_flexion	neck_bending	neck_rotation	arm_flex_r	arm_add_r	arm_rot_r	elbow_flex_r	pro_sup_r	wrist_flex_r	wrist_dev_r	arm_flex_l	arm_add_l	arm_rot_l	elbow_flex_l	pro_sup_l	wrist_flex_l	wrist_dev_l
      6.68333333	     -3.33545212	     -7.04484884	     76.86032472	      0.20596771	      0.95049219	      0.42517908	      2.25925880	     -0.47035331	      3.48664591	      5.84600225	      0.10203199	     35.67556702	     15.93195837	      0.00000000	      6.64200068	      0.15076654	     -4.03655242	     14.71010021	      0.25673968	     35.60232086	    -12.98138562	      0.00000000	     -0.33331552	     -0.18335210	      0.43616165	     -0.61900026	     -0.24385829	      0.46342175	     -0.54760408	     -0.44580230	      0.46342175	     -0.38094631	     -0.44580230	      0.38164144	     -0.30951680	     -0.37389160	      0.35438134	     -0.19045649	     -0.28401240	      0.32712124	     -2.38083946	     -2.07411564	      2.42580024	      0.00000000	      0.00000000	     20.72273223	      8.89772455	     15.30752768	      2.97196346	    -10.02277195	    117.46640830	      4.66933712	      2.40825001	      0.51150417	    -13.12867331	      5.54815700	    -11.07096982	    133.21593743	      3.44824975	      2.95420049	     -4.43055412	    -18.77296336
      6.70000000	     -3.36814119	     -6.99097659	     76.82837347	      0.20580154	      0.95102721	      0.42536167	      2.03769391	     -0.52341876	      3.55145525	      5.37765214	      0.09385774	     35.46993160	     16.01522816	      0.00000000	      6.73549053	      0.20461545	     -3.83523115	     15.00586496	      0.26190175	     35.47274664	    -13.14516460	      0.00000000	     -0.33858965	     -0.19226729	      0.52669730	     -0.62879484	     -0.25571549	      0.55961588	     -0.55626893	     -0.46747868	      0.55961588	     -0.38697411	     -0.46747868	      0.46086014	     -0.31441435	     -0.39207145	      0.42794156	     -0.19347013	     -0.29782202	      0.39502297	     -2.41851201	     -2.17496598	      2.92933237	      0.00000000	      0.00000000	     20.78329210	      9.17861526	     14.88093840	      2.91468526	     -9.84107776	    117.68116422	      4.32578784	      2.25563585	      0.53291991	    -14.20620823	      5.76864748	    -10.99645336	    132.41118238	      3.37648892	      2.70001727	     -4.45973665	    -19.55398588
      6.71666667	     -3.42441932	     -6.93286554	     76.74521113	      0.20531508	      0.95157890	      0.42566326	      1.98519929	     -0.60677104	      3.94369698	      5.21555328	      0.09102858	     35.33267991	     15.70192065	      0.00000000	      6.75108277	      0.41847117	     -2.87861504	     15.04295498	      0.26254909	     35.07730843	    -14.34984570	      0.00000000	     -0.34790797	     -0.19850999	      0.60794990	     -0.64609989	     -0.26401829	      0.64594677	     -0.57157800	     -0.48265719	      0.64594677	     -0.39762402	     -0.48265719	      0.53195616	     -0.32306734	     -0.40480157	      0.49395930	     -0.19879461	     -0.30749197	      0.45596243	     -2.48507183	     -2.24558470	      3.38123497	      0.00000000	      0.00000000	     20.90059680	      8.96363882	     14.24259034	      2.97632374	     -9.67475557	    120.15509421	      3.60966339	      1.96070660	      0.68499847	    -15.44905475	      6.11052071	    -11.12451206	    127.35578530	      4.32990468	      3.30581172	     -3.69876978	    -20.87359240
      6.73333333	     -3.59207931	     -6.86749838	     76.70508121	      0.20488594	      0.95211648	      0.42609194	      2.07796441	     -0.81132835	      4.07733223	      5.29526766	      0.09241986	     35.34376208	     15.69712355	      0.00000000	      6.90639904	      0.63777223	     -2.61275069	     15.30285838	      0.26708526	     35.04466251	    -14.40710856	      0.00000000	     -0.35580263	     -0.22540835	      0.68378025	     -0.66076106	     -0.29979311	      0.72651652	     -0.58454814	     -0.54805787	      0.72651652	     -0.40664682	     -0.54805787	      0.59830772	     -0.33039832	     -0.45965271	      0.55557145	     -0.20330562	     -0.34915754	      0.51283519	     -2.54146260	     -2.54986437	      3.80298062	      0.00000000	      0.00000000	     21.00201493	      9.15371301	     13.41458009	      3.18389550	     -9.31034011	    121.52419957	      3.11637205	      2.27706224	      0.48087414	    -16.96158364	      6.69292686	    -11.23087033	    126.16366884	      4.84696442	      2.72883576	     -3.29253632	    -21.62918324
